<svg xmlns="http://www.w3.org/2000/svg" viewBox="0 0 64 64" width="64" height="64">
  <defs>
    <linearGradient id="scrib-logo-grad" x1="0%" y1="100%" x2="100%" y2="0%">
      <stop offset="0%" stop-color="#4f46e5" />
      <stop offset="50%" stop-color="#6366f1" />
      <stop offset="100%" stop-color="#8b5cf6" />
    </linearGradient>
  </defs>
  <rect width="64" height="64" rx="16" fill="url(#scrib-logo-grad)" />
  <g transform="translate(8, 8) scale(2)">
    <path
      d="M2 13a2 2 0 0 0 2-2V7a2 2 0 0 1 4 0v13a2 2 0 0 0 4 0V4a2 2 0 0 1 4 0v13a2 2 0 0 0 4 0v-4a2 2 0 0 1 2-2"
      fill="none"
      stroke="#ffffff"
      stroke-width="2"
      stroke-linecap="round"
      stroke-linejoin="round"
    />
  </g>
</svg>
